<svg width="1080" height="591" viewBox="0 0 1080 591" fill="none" xmlns="http://www.w3.org/2000/svg">
<g clip-path="url(#clip0_75_3348)">
<path d="M548.211 464.662C514.598 464.662 514.007 432.476 522.263 397.362L555.877 249.303C563.543 217.116 569.44 184.929 545.852 184.929C501.76 184.929 427.198 311.725 396.359 456.306C396.193 457.082 395.503 457.64 394.705 457.64H336.827C335.755 457.64 334.954 456.661 335.175 455.62L415.535 76.0783C423.088 39.7517 417.475 26.7186 398.13 21.3051C397.661 21.174 397.385 20.68 397.539 20.2215L398.121 18.488C398.315 17.9128 398.806 17.4861 399.406 17.3723L491.009 0H491.284C492.357 0 493.158 0.981204 492.935 2.02324L428.21 304.526C427.998 305.512 429.43 305.958 429.846 305.037C473.677 208.08 523.219 143.963 583.593 143.963C631.358 143.963 631.357 193.122 617.205 253.984L584.772 393.266C581.824 405.556 578.285 421.356 587.72 421.356C594.454 421.356 608.246 411.236 627.181 388.455C627.791 387.72 628.901 387.624 629.619 388.257L632.495 390.791C633.098 391.323 633.233 392.211 632.822 392.899C605.662 438.344 576.251 464.662 548.211 464.662Z" fill="black"/>
<path d="M762.817 99.2412C740.998 99.2412 723.896 82.27 723.896 60.6169C723.896 39.5491 740.998 22.5778 762.817 22.5778C784.046 22.5778 801.147 39.5491 801.147 60.6169C801.147 82.27 784.046 99.2412 762.817 99.2412Z" fill="black"/>
<path d="M691.463 464.417C656.671 464.417 659.03 425.792 665.516 397.117L704.436 215.114C707.385 202.239 710.333 187.024 700.898 187.024C694.493 187.024 683.562 196.827 668.447 214.385C667.751 215.193 666.481 215.169 665.822 214.331L663.616 211.524C663.196 210.989 663.145 210.25 663.485 209.661C687.469 168.156 716.03 143.718 742.177 143.718C775.2 143.718 774.021 176.49 766.945 211.018L728.024 393.02L727.91 393.546C726.089 401.963 722.324 419.355 731.562 419.355C739.757 419.355 754.276 406.451 769.967 388.182C770.562 387.489 771.607 387.387 772.322 387.958L775.639 390.612C776.289 391.133 776.454 392.056 776.028 392.77C748.99 438.143 719.998 464.417 691.463 464.417Z" fill="black"/>
<path fill-rule="evenodd" clip-rule="evenodd" d="M975.774 356.119C939.504 430.798 901.472 464.317 855.428 464.317C818.233 464.317 792.295 432.112 792.295 374.729C792.295 268.747 867.862 143.442 979.966 143.442C1008.18 143.442 1060.69 160.824 1075.34 176.901C1076.01 177.637 1076.23 178.647 1076.03 179.619L1030.41 392.983C1028.58 402.008 1024.12 419.355 1033.55 419.355C1041.75 419.355 1058.01 406.451 1073.7 388.182C1074.3 387.489 1075.34 387.387 1076.06 387.958L1079.38 390.612C1080.03 391.133 1080.19 392.056 1079.76 392.77C1052.73 438.143 1023.73 464.417 995.199 464.417C986.055 464.417 979.455 461.737 974.812 457.266C961.788 444.726 964.156 418.092 968.938 396.953L977.489 356.643C977.703 355.644 976.186 355.183 975.774 356.119ZM999.46 245.163C978.809 348.217 921.189 419.718 882.247 419.718C861.596 419.718 847.519 403.079 847.519 360.92C847.519 267.234 909.187 161.691 969.346 161.691C1011.91 161.691 1005.78 215.368 999.46 245.163Z" fill="black"/>
<path fill-rule="evenodd" clip-rule="evenodd" d="M232.018 143.749C300.484 143.749 333.255 191.148 333.255 258.442C333.255 359.092 261.268 464.422 150.677 464.422C141.165 464.422 122.652 462.826 110.298 458.617C109.37 458.301 108.363 458.854 108.163 459.814C108.163 459.814 107.939 461.263 93.5193 530.08C85.66 567.588 80.7751 583.965 101.141 585.543C101.741 585.637 102.179 586.195 102.081 586.795L101.542 590.087C101.457 590.6 101.014 590.977 100.494 590.977H1.06221C0.406813 590.977 -0.0921326 590.389 0.0143732 589.743L0.712024 586.192C0.801837 585.647 1.23747 585.223 1.78163 585.127C20.2361 582.566 21.2151 574.843 30.817 530.381C55.8573 414.432 75.8806 321.835 100.504 208.033C100.655 207.333 99.9473 206.759 99.2951 207.054C89.1298 211.666 78.7426 216.905 67.8835 222.771C66.9345 223.283 65.7504 222.826 65.3967 221.807L62.8884 214.581C62.6436 213.877 62.8739 213.093 63.4624 212.635C76.9375 202.131 90.4935 192.696 104.311 184.329C105.143 183.824 105.732 182.999 105.931 182.046L114.013 143.433C114.156 142.749 114.627 142.179 115.272 141.909L178.584 115.42C179.374 115.089 180.21 115.781 180.033 116.619L172.628 151.693C172.493 152.337 173.091 152.894 173.724 152.716C193.74 147.102 213.717 143.749 232.018 143.749ZM272.972 263.709C272.972 354.41 221.962 446.312 161.796 446.312C119.415 446.312 120.556 400.452 126.685 371.38C165.97 185.035 166.32 183.372 166.32 183.372C166.452 182.74 166.923 182.23 167.544 182.052C181.169 178.164 192.515 176.492 203.938 176.492C250.752 176.492 272.972 206.362 272.972 263.709Z" fill="black"/>
</g>
<defs>
<clipPath id="clip0_75_3348">
<rect width="1080" height="590.977" fill="white"/>
</clipPath>
</defs>
</svg>
